<?xml version="1.0" standalone="no"?>
<!DOCTYPE svg PUBLIC "-//W3C//DTD SVG 20010904//EN"
 "http://www.w3.org/TR/2001/REC-SVG-20010904/DTD/svg10.dtd">
<svg version="1.0" xmlns="http://www.w3.org/2000/svg"
 width="700.000000pt" height="700.000000pt" viewBox="0 0 700.000000 700.000000"
 preserveAspectRatio="xMidYMid meet">
<metadata>
Created by potrace 1.14, written by Peter Selinger 2001-2017
</metadata>
<g transform="translate(0.000000,700.000000) scale(0.100000,-0.100000)"
fill="#000000" stroke="none">
<path d="M2820 4894 c-575 -50 -975 -156 -1412 -374 -445 -222 -872 -563
-1061 -847 -113 -169 -185 -337 -234 -543 -34 -147 -43 -403 -18 -551 33 -198
115 -404 228 -568 63 -92 228 -265 317 -332 129 -98 333 -186 520 -226 131
-28 433 -25 553 5 368 92 610 322 703 667 27 100 27 351 0 450 -72 273 -278
496 -539 586 -304 104 -590 33 -757 -190 -88 -117 -117 -242 -86 -374 29 -125
110 -248 188 -286 63 -30 141 -29 173 3 28 28 40 66 32 99 -4 12 -26 49 -50
82 -74 100 -86 179 -43 271 51 110 177 161 360 144 240 -22 396 -202 396 -455
0 -147 -46 -252 -160 -365 -135 -135 -291 -193 -520 -193 -118 0 -146 4 -223
27 -152 46 -269 117 -368 224 -277 298 -328 737 -123 1048 178 269 600 442
986 404 274 -27 502 -128 728 -322 208 -179 397 -472 553 -860 69 -171 180
-313 276 -349 54 -21 68 -22 411 -20 209 2 360 6 366 12 46 38 -96 141 -243
175 -117 27 -170 67 -208 157 -20 48 -20 156 1 185 15 22 16 22 342 22 180 0
356 -5 392 -10 245 -39 408 -167 521 -407 29 -62 57 -107 71 -115 18 -10 104
-13 380 -13 196 0 360 3 364 7 12 12 -17 67 -50 95 -17 14 -69 44 -116 66
-272 125 -370 274 -306 465 14 41 27 59 58 79 55 37 120 40 319 15 231 -29
335 -34 483 -22 312 26 570 108 777 246 73 50 105 79 92 87 -4 3 -51 1 -103
-5 -52 -5 -203 -8 -335 -5 -206 3 -251 7 -320 26 -142 38 -320 136 -399 219
-35 38 -31 78 10 88 20 5 40 -4 97 -43 114 -79 212 -124 347 -159 52 -13 130
-18 383 -21 337 -5 381 -2 396 25 12 24 -6 313 -29 458 -48 302 -167 520 -352
647 -68 47 -1203 577 -1235 577 -13 0 -36 -12 -50 -26 l-26 -26 8 -284 c7
-281 5 -305 -25 -269 -20 25 -167 115 -253 155 -492 231 -998 369 -1582 430
-105 11 -527 21 -605 14z m3645 -669 c178 -47 303 -195 313 -375 7 -126 -28
-220 -117 -313 -90 -93 -193 -133 -324 -124 -239 16 -418 239 -379 472 40 243
275 400 507 340z"/>
<path d="M6273 4116 c-93 -30 -181 -124 -203 -218 -25 -103 13 -233 86 -297
69 -61 110 -76 209 -76 81 0 95 3 143 29 99 55 153 139 160 251 8 129 -62 247
-176 297 -58 26 -162 33 -219 14z m313 -255 c82 -50 63 -173 -32 -200 -71 -19
-134 30 -134 104 0 91 89 143 166 96z"/>
</g>
</svg>
