<?xml version="1.0" encoding="utf-8"?>
<!-- Generator: Adobe Illustrator 26.0.1, SVG Export Plug-In . SVG Version: 6.00 Build 0)  -->
<svg version="1.1" id="Layer_1" xmlns="http://www.w3.org/2000/svg" xmlns:xlink="http://www.w3.org/1999/xlink" x="0px" y="0px"
	 viewBox="0 0 537.1 113.4" style="enable-background:new 0 0 537.1 113.4;" xml:space="preserve">
<style type="text/css">
	.st0{fill:#004D93;}
	.st1{fill:#FFFFFF;}
	.st2{fill:#344845;}
</style>
<path class="st0" d="M121.9,112.9H13.5C6.1,112.9,0,106.8,0,99.4V14.7C0,7.3,6.1,1.2,13.5,1.2h108.3c7.4,0,13.5,6.1,13.5,13.5v84.6
	C135.4,106.8,129.3,112.9,121.9,112.9z"/>
<g>
	<path class="st1" d="M32.1,73.4V55h61.6c-2,3.7-3.2,7.9-3.2,12.4v8.9c2.2-0.7,4.1-1.5,5.4-2.1l4.5-2.2l3.7,1.8v-6.4
		c0-6.9,5.6-12.4,12.4-12.4V41.4H68.8v-8.1h6.8V19.8h-6.8H25.5h-6.9v13.5h6.9v8.1h-6.9v36c4.7,0,9.5-2,11.9-3.2L32.1,73.4z
		 M39.1,33.3h16.2v8.1H39.1V33.3z"/>
	<path class="st1" d="M103.4,77.2l-3-1.5l-3,1.5c-2.7,1.3-8,3.5-13.4,3.5c-5.3,0-10.7-2.2-13.4-3.5l-3-1.5l-3,1.5
		c-2.7,1.3-8,3.5-13.4,3.5c-5.3,0-10.7-2.2-13.4-3.5l-3-1.5l-3,1.5c-2.7,1.3-8.1,3.5-13.4,3.5v13.5c6.2,0,12-1.7,16.4-3.6
		c4.4,1.8,10.2,3.6,16.4,3.6c6.2,0,11.9-1.7,16.4-3.6c4.4,1.8,10.2,3.6,16.4,3.6c6.2,0,11.9-1.7,16.4-3.6c4.4,1.8,10.2,3.6,16.4,3.6
		V80.8C111.5,80.8,106.1,78.6,103.4,77.2z"/>
</g>
<g>
	<path class="st2" d="M155.7,39.9h22.7v6.3h-14.2v7.4h11.9v6.3h-11.9v8h14.7v6.3h-23.2V39.9z"/>
	<path class="st2" d="M183.4,39.9h14.4c6.8,0,11.6,3.4,11.6,10.3c0,7.5-4.7,11.8-11.6,11.8h-5.9v12.2h-8.5V39.9z M191.8,46.1v9.7h4
		c2.6,0,5-1.4,5-5.1c0-3.5-2.4-4.6-5-4.6H191.8z"/>
	<path class="st2" d="M211.7,39.9h17.7v6h-4.6v22.3h4.6v6h-17.7v-6h4.6V45.9h-4.6V39.9z"/>
	<path class="st2" d="M234,39.9h9.1l9,17c0.8,1.5,1.8,4.1,2.6,6.1h0.2c-0.1-1.9-0.4-4.7-0.4-6.7V39.9h7v34.3h-8.9l-9.3-17
		c-0.9-1.5-1.8-3.8-2.5-5.6h-0.2c0.2,1.9,0.4,4.2,0.4,6.1v16.5h-7V39.9z"/>
	<path class="st2" d="M266.1,39.9h17.7v6h-4.6v22.3h4.6v6h-17.7v-6h4.6V45.9h-4.6V39.9z"/>
	<path class="st2" d="M286.5,56.6c0-12.3,6.6-17.3,15.7-17.3c9,0,15.6,4.9,15.6,17.3c0,13.7-6.8,18.2-15.6,18.2
		C293.1,74.8,286.5,69.9,286.5,56.6z M309.1,56.6c0-8.5-3.4-11.3-7-11.3c-3.7,0-7,2.7-7,11.3c0,9.5,3.3,12.2,7,12.2
		C305.8,68.8,309.1,66.1,309.1,56.6z"/>
</g>
</svg>
