<?xml version="1.0" encoding="utf-8"?>
<!-- Generator: Adobe Illustrator 26.0.1, SVG Export Plug-In . SVG Version: 6.00 Build 0)  -->
<svg version="1.1" id="Layer_1" xmlns="http://www.w3.org/2000/svg" xmlns:xlink="http://www.w3.org/1999/xlink" x="0px" y="0px"
	 viewBox="0 0 537.1 113.4" style="enable-background:new 0 0 537.1 113.4;" xml:space="preserve">
<style type="text/css">
	.st0{fill:#D13306;}
	.st1{fill:#FFFFFF;}
	.st2{fill:#344845;}
</style>
<g>
	<g>
		<path class="st0" d="M121.9,113.3H13.5C6.1,113.3,0,107.2,0,99.8V15.1C0,7.7,6.1,1.6,13.5,1.6h108.4c7.5,0,13.5,6.1,13.5,13.5
			v84.7C135.5,107.2,129.4,113.3,121.9,113.3z"/>
		<g>
			<path class="st1" d="M67.7,15.1L31.1,36.3v42.3l36.7,21.2l36.7-21.2V36.3L67.7,15.1z M94.2,72.8L67.7,88.1L41.2,72.8V42.2
				l26.5-15.3l26.5,15.3V72.8z"/>
			<polygon class="st1" points="59.7,41.1 49.6,47 49.6,67.9 59.7,73.8 59.7,62.5 75.7,62.5 75.7,73.8 85.9,67.9 85.9,47 75.7,41.1 
				75.7,52.4 59.7,52.4 			"/>
		</g>
	</g>
	<g>
		<path class="st2" d="M169.1,40.2h8.5v13H188v-13h8.5v34.3H188V60h-10.4v14.5h-8.5V40.2z"/>
		<path class="st2" d="M210.2,60l-11-19.8h9.6l4.5,8.4c0.9,1.6,1.8,3.8,1.8,3.8h0.2c0,0,0.9-2.1,1.8-3.9l4.3-8.3h7.8L218.7,60v14.5
			h-8.5V60z"/>
		<path class="st2" d="M232.3,40.2h14.4c6.8,0,11.6,3.4,11.6,10.3c0,7.5-4.7,11.8-11.6,11.8h-5.9v12.2h-8.5V40.2z M240.7,46.4v9.8h4
			c2.6,0,5-1.4,5-5.1c0-3.5-2.4-4.6-5-4.6H240.7z"/>
		<path class="st2" d="M262.1,40.2h14.4c6.8,0,11.6,3.4,11.6,10.3c0,7.5-4.7,11.8-11.6,11.8h-5.9v12.2h-8.5V40.2z M270.6,46.4v9.8h4
			c2.6,0,5-1.4,5-5.1c0-3.5-2.4-4.6-5-4.6H270.6z"/>
		<path class="st2" d="M292,40.2h22.7v6.3h-14.2v7.4h11.9v6.3h-11.9v8h14.7v6.3H292V40.2z"/>
		<path class="st2" d="M319.6,40.2h14.1c6.7,0,11.2,3.3,11.2,9.6c0,5.1-3.5,8.2-6.9,9.3c1,0.9,1.8,2,2.4,3.3
			c1.4,2.9,2.4,6.1,5.4,6.1c0.8,0,1.4-0.3,1.4-0.3l-0.7,6c0,0-1.8,0.5-3.4,0.5c-4.1,0-6.4-1.6-8.8-7c-1-2.4-2.4-6.7-4.3-6.7h-1.9
			v13.6h-8.5V40.2z M328.1,46.4v8.4h3c2.4,0,5.3-0.8,5.3-4.4c0-3-1.9-4-4.3-4H328.1z"/>
	</g>
</g>
</svg>
