<?xml version="1.0" encoding="utf-8"?>
<!-- Generator: Adobe Illustrator 26.0.1, SVG Export Plug-In . SVG Version: 6.00 Build 0)  -->
<svg version="1.1" id="Layer_1" xmlns="http://www.w3.org/2000/svg" xmlns:xlink="http://www.w3.org/1999/xlink" x="0px" y="0px"
	 viewBox="0 0 537.1 111.4" style="enable-background:new 0 0 537.1 111.4;" xml:space="preserve">
<style type="text/css">
	.st0{fill:#384745;}
	.st1{fill:#5F224A;}
</style>
<path class="st0" d="M163.9,34.9h10.3v33.9h17.3v7.6h-27.6V34.9z"/>
<path class="st0" d="M193.2,55.1c0-15,7.9-20.9,19.1-20.9c11,0,18.9,6,18.9,20.9c0,16.6-8.2,22.1-18.9,22.1
	C201.1,77.2,193.2,71.2,193.2,55.1z M220.7,55.1c0-10.3-4.1-13.7-8.5-13.7s-8.4,3.3-8.4,13.7c0,11.5,4,14.8,8.4,14.8
	S220.7,66.6,220.7,55.1L220.7,55.1z"/>
<path class="st0" d="M236.8,34.9h11l10.9,20.6c0.9,1.8,2.2,4.9,3.1,7.4h0.2c-0.1-2.3-0.4-5.7-0.4-8.1v-20h8.4v41.6h-10.8L248,55.9
	c-1.2-2.2-2.2-4.5-3-6.8h-0.2c0.2,2.3,0.5,5.1,0.5,7.4v20h-8.4V34.9z"/>
<path class="st0" d="M294.4,55.5h17.1v21h-7v-7c-1.5,4.6-4.8,7.8-11.9,7.8c-9.6,0-16.8-6.7-16.8-21.7s7.3-21.3,18.6-21.3
	c12.7,0,17.7,7.2,16.3,14.5l-9.7,1c0.7-5.7-2.1-8.3-6.2-8.3c-4.5,0-8.4,3.3-8.4,14.2s3.4,14,8.4,14c4.6,0,7.2-2.8,7.3-5.7v-1.2h-7.8
	L294.4,55.5z"/>
<path class="st0" d="M317.7,34.9H328v15.7h12.6V34.9h10.3v41.6h-10.3V58.9H328v17.6h-10.3V34.9z"/>
<path class="st0" d="M356.5,55.1c0-15,7.9-20.9,19.1-20.9c11,0,18.9,6,18.9,20.9c0,16.6-8.2,22.1-18.9,22.1
	C364.4,77.2,356.5,71.2,356.5,55.1z M384,55.1c0-10.3-4.1-13.7-8.5-13.7c-4.4,0-8.4,3.3-8.4,13.7c0,11.5,4,14.8,8.4,14.8
	C379.9,69.9,384,66.6,384,55.1L384,55.1z"/>
<path class="st0" d="M400.1,34.9h17.1c8.1,0,13.6,3.9,13.6,11.6c0,5.2-3.4,9.8-8.4,11.3c1.2,1.1,2.2,2.4,2.9,3.9
	c1.7,3.5,2.9,7.4,6.5,7.4c0.6,0,1.1-0.1,1.7-0.3l-0.8,7.3c-1.4,0.3-2.7,0.5-4.1,0.6c-4.9,0-7.8-1.9-10.7-8.5c-1.2-3-3-8.1-5.2-8.1
	h-2.3v16.4h-10.3V34.9z M410.4,42.4v10.2h3.7c3,0,6.4-0.9,6.4-5.4c0-3.6-2.3-4.9-5.2-4.9L410.4,42.4z"/>
<path class="st0" d="M437.8,34.9h11l10.9,20.6c0.9,1.8,2.2,4.9,3.1,7.4h0.2c-0.1-2.3-0.4-5.7-0.4-8.1v-20h8.4v41.6h-10.8l-11.3-20.6
	c-1.2-2.2-2.2-4.5-3-6.8h-0.2c0.2,2.3,0.5,5.1,0.5,7.4v20h-8.4V34.9z"/>
<path class="st1" d="M68,56.4c-0.5,0-0.9,0-1.4-0.1l-3.7-0.7l3.2,19.6c0.1,0.4,0.1,0.7,0.1,1.1h3.6c0-0.4,0-0.8,0.1-1.3l3.6-19.5
	l-4.1,0.8C68.9,56.4,68.4,56.4,68,56.4z"/>
<path class="st1" d="M121.6,0H14.4C6.5,0,0,6.5,0,14.4V97c0,7.9,6.5,14.4,14.4,14.4h107.2c7.9,0,14.4-6.5,14.4-14.4V14.4
	C136,6.5,129.5,0,121.6,0z M124,29.1L122.3,41c-0.4,2.9-2.7,5.3-5.6,5.8l-28.5,5.7c0,0,0,0.1,0,0.1L83.8,77
	c-0.4,7.4-6.5,13.3-14,13.3h-3.6c-7.5,0-13.6-5.9-14-13.3l-3.9-24.3l-29-5.8c-2.9-0.6-5.1-2.9-5.6-5.8L12,29.1
	c-0.6-3.8,2.1-7.4,5.9-7.9c3.8-0.6,7.4,2.1,7.9,5.9l1,7L68,42.3l41.1-8.2l1-7c0.6-3.8,4.1-6.5,8-5.9C121.9,21.7,124.6,25.3,124,29.1
	L124,29.1z"/>
</svg>
