<?xml version="1.0" encoding="utf-8"?>
<!-- Generator: Adobe Illustrator 26.0.1, SVG Export Plug-In . SVG Version: 6.00 Build 0)  -->
<svg version="1.1" id="Layer_1" xmlns="http://www.w3.org/2000/svg" xmlns:xlink="http://www.w3.org/1999/xlink" x="0px" y="0px"
	 viewBox="0 0 537.1 111" style="enable-background:new 0 0 537.1 111;" xml:space="preserve">
<style type="text/css">
	.st0{fill:#6D8480;}
	.st1{fill:#83D6AE;}
	.st2{fill:#FFFFFF;}
</style>
<g>
	<g>
		<path class="st0" d="M133.2,41.1h-6.3v-4.9h6.3V24.7h5.9v11.4h12.5V41h-12.5v28.3c0,5.6,1.9,7.3,7.2,7.3h5.3v5h-6.3
			c-7.9,0-12.2-3.3-12.2-12.3V41.1H133.2z"/>
		<path class="st0" d="M162.9,81.7h-5.8V36.1h5.8v8.1c2.5-5.6,7.8-8.9,15.6-8.9v6.1h-1.6c-7.6,0-14,3.4-14,14.8V81.7z"/>
		<path class="st0" d="M202.7,82.4c-12.9,0-22.4-9-22.4-23.4c0-14.5,9.3-23.4,22.4-23.4c13.3,0,21.5,9.5,21.5,21.1
			c0,1.8,0,3-0.2,4.6h-37.8c0.5,10.7,7.9,16.3,16.4,16.3c7.8,0,13-4.1,14.7-10.2h6.2C221.5,75.8,214.2,82.4,202.7,82.4z M186.3,56.4
			h32c0.3-10.6-7.4-15.9-15.8-15.9C194.2,40.5,187,45.8,186.3,56.4z"/>
		<path class="st0" d="M264.9,55.7c0-10.1-5.5-15.3-13.8-15.3c-8.5,0-14.4,5.3-14.4,16.4v24.9h-5.8V36.1h5.8v7.8
			c2.9-5.7,8.8-8.6,15.5-8.6c10.3,0,18.5,6.3,18.5,19.7v26.7h-5.8L264.9,55.7L264.9,55.7z"/>
		<path class="st0" d="M281.1,41.1h-6.4v-4.9h6.3V24.7h5.9v11.4h12.5V41h-12.5v28.3c0,5.6,1.9,7.3,7.2,7.3h5.3v5h-6.3
			c-7.9,0-12.2-3.3-12.2-12.3V41.1H281.1z"/>
		<path class="st0" d="M324.8,82.4c-12.8,0-22.6-9-22.6-23.4c0-14.5,10-23.4,22.8-23.4s22.8,8.9,22.8,23.4
			C347.8,73.3,337.7,82.4,324.8,82.4z M324.8,77.3c8.6,0,16.9-5.8,16.9-18.3s-8.2-18.3-16.8-18.3s-16.8,5.8-16.8,18.3
			C308.2,71.4,316.2,77.3,324.8,77.3z"/>
	</g>
	<g>
		<rect class="st1" width="111" height="111"/>
		<g>
			<path class="st2" d="M74.3,28.5v11.8H61.7V28.5H49.2v11.8H36.6V28.5H24.1v70.2h19.4V76.1c0-9.9,12-16.8,12-16.8s12,6.9,12,16.8
				v22.7h19.4V28.5H74.3z"/>
			<polygon class="st2" points="33.4,14.1 33.4,18.8 27.4,18.8 27.4,14.1 21.3,14.1 21.3,24.7 39.4,24.7 39.4,14.1 			"/>
			<polygon class="st2" points="58.4,14.1 58.4,18.8 52.5,18.8 52.5,14.1 46.4,14.1 46.4,24.7 64.5,24.7 64.5,14.1 			"/>
			<polygon class="st2" points="83.6,14.1 83.6,18.8 77.6,18.8 77.6,14.1 71.5,14.1 71.5,24.7 89.7,24.7 89.7,14.1 			"/>
		</g>
	</g>
</g>
</svg>
